<svg width="180" height="180" viewBox="0 0 180 180" fill="none" xmlns="http://www.w3.org/2000/svg">
<circle cx="90" cy="90" r="90" fill="#FF0080"/>
<path d="M144.521 89.7283L90.6538 21.0041C90.2534 20.4933 89.4801 20.4933 89.0797 21.0041L35.213 89.7283C35.075 89.9043 35 90.1215 35 90.3452V124.961C35 125.31 35.1818 125.633 35.4796 125.815L62.4334 142.239L89.3233 159.648C89.654 159.862 90.0795 159.862 90.4102 159.648L117.3 142.239L144.254 125.815C144.552 125.633 144.734 125.31 144.734 124.961V90.3452C144.734 90.1215 144.659 89.9043 144.521 89.7283Z" stroke="white" stroke-width="10"/>
<g filter="url(#filter0_d_235_2)">
<path d="M134.073 90.1415L94.0044 39.0206C92.0025 36.4666 88.1358 36.4666 86.1339 39.0206L46.0648 90.1415C45.3749 91.0217 45 92.1077 45 93.226V117.871C45 119.615 45.9088 121.233 47.3982 122.14L67.5346 134.41L87.3518 147.241C89.0052 148.311 91.1331 148.311 92.7865 147.241L112.604 134.41L132.74 122.14C134.229 121.233 135.138 119.615 135.138 117.871V93.226C135.138 92.1077 134.763 91.0217 134.073 90.1415Z" fill="white"/>
</g>
<g filter="url(#filter1_d_235_2)">
<path fill-rule="evenodd" clip-rule="evenodd" d="M86.5508 75.9006C81.09 81.3613 78.5983 91.5028 80.1585 102.424L76.258 106.325C73.1375 109.445 73.9176 112.566 74.6978 116.466L76.258 121.147L83.279 114.126L90.3 115.989L97.321 114.126L104.342 121.147L105.902 116.466C106.682 113.346 107.462 109.445 104.342 106.325L100.441 102.424C102.002 91.5028 99.0325 80.5812 94.3519 75.9006L90.4513 72L86.5508 75.9006ZM87.9597 89.1625C89.5199 87.6022 91.8602 87.6022 92.6403 89.1625C94.2006 90.7227 94.2006 93.063 92.6403 93.8431C91.0801 95.4034 88.7398 95.4034 87.9597 93.8431C86.3994 92.2829 86.3994 89.9426 87.9597 89.1625ZM86.3994 118.655V120.996C86.3994 124.896 90.3 129.577 90.3 129.577C90.3 129.577 94.2006 124.896 94.2006 120.996V118.655L90.3 119.503L87.1795 118.655H86.3994Z" fill="#FF0080"/>
</g>
<defs>
<filter id="filter0_d_235_2" x="40" y="32.1051" width="100.138" height="120.938" filterUnits="userSpaceOnUse" color-interpolation-filters="sRGB">
<feFlood flood-opacity="0" result="BackgroundImageFix"/>
<feColorMatrix in="SourceAlpha" type="matrix" values="0 0 0 0 0 0 0 0 0 0 0 0 0 0 0 0 0 0 127 0" result="hardAlpha"/>
<feOffset/>
<feGaussianBlur stdDeviation="2.5"/>
<feComposite in2="hardAlpha" operator="out"/>
<feColorMatrix type="matrix" values="0 0 0 0 0 0 0 0 0 0 0 0 0 0 0 0 0 0 0.25 0"/>
<feBlend mode="normal" in2="BackgroundImageFix" result="effect1_dropShadow_235_2"/>
<feBlend mode="normal" in="SourceGraphic" in2="effect1_dropShadow_235_2" result="shape"/>
</filter>
<filter id="filter1_d_235_2" x="69" y="67" width="42.6" height="67.577" filterUnits="userSpaceOnUse" color-interpolation-filters="sRGB">
<feFlood flood-opacity="0" result="BackgroundImageFix"/>
<feColorMatrix in="SourceAlpha" type="matrix" values="0 0 0 0 0 0 0 0 0 0 0 0 0 0 0 0 0 0 127 0" result="hardAlpha"/>
<feOffset/>
<feGaussianBlur stdDeviation="2.5"/>
<feComposite in2="hardAlpha" operator="out"/>
<feColorMatrix type="matrix" values="0 0 0 0 0 0 0 0 0 0 0 0 0 0 0 0 0 0 0.25 0"/>
<feBlend mode="normal" in2="BackgroundImageFix" result="effect1_dropShadow_235_2"/>
<feBlend mode="normal" in="SourceGraphic" in2="effect1_dropShadow_235_2" result="shape"/>
</filter>
</defs>
</svg>
